<svg width="24" height="25" viewBox="0 0 24 25" fill="none" xmlns="http://www.w3.org/2000/svg">
<path d="M7.37498 17.281L8.62498 15.719L4.60098 12.5L8.62498 9.28101L7.37498 7.71901L2.37498 11.719C2.25783 11.8127 2.16325 11.9315 2.09825 12.0667C2.03326 12.2019 1.99951 12.35 1.99951 12.5C1.99951 12.65 2.03326 12.7981 2.09825 12.9333C2.16325 13.0685 2.25783 13.1873 2.37498 13.281L7.37498 17.281ZM16.625 7.71901L15.375 9.28101L19.399 12.5L15.375 15.719L16.625 17.281L21.625 13.281C21.7421 13.1873 21.8367 13.0685 21.9017 12.9333C21.9667 12.7981 22.0005 12.65 22.0005 12.5C22.0005 12.35 21.9667 12.2019 21.9017 12.0667C21.8367 11.9315 21.7421 11.8127 21.625 11.719L16.625 7.71901ZM14.976 3.71601L10.976 21.716L9.02298 21.282L13.023 3.28201L14.976 3.71601Z" fill="#202547"/>
</svg>
