<svg width="28" height="28" viewBox="0 0 28 28" fill="none" xmlns="http://www.w3.org/2000/svg">
<mask id="mask0_8_8" style="mask-type:alpha" maskUnits="userSpaceOnUse" x="0" y="0" width="28" height="28">
<rect width="28" height="28" fill="#D9D9D9"/>
</mask>
<g mask="url(#mask0_8_8)">
<path d="M10.5 18.6666H18.0833C18.9 18.6666 19.5903 18.3847 20.1542 17.8208C20.7181 17.2569 21 16.5666 21 15.75C21 14.9333 20.7181 14.243 20.1542 13.6791C19.5903 13.1152 18.9 12.8333 18.0833 12.8333H18.025C17.8694 11.8416 17.4368 11.0104 16.7271 10.3395C16.0174 9.66871 15.1667 9.33329 14.175 9.33329C13.3583 9.33329 12.6 9.53746 11.9 9.94579C11.2 10.3541 10.675 10.9277 10.325 11.6666H10.1792C9.26528 11.6666 8.50694 12.0166 7.90417 12.7166C7.30139 13.4166 7 14.2333 7 15.1666C7 16.1388 7.34028 16.9652 8.02083 17.6458C8.70139 18.3263 9.52778 18.6666 10.5 18.6666ZM4.66667 23.3333C4.025 23.3333 3.47569 23.1048 3.01875 22.6479C2.5618 22.1909 2.33333 21.6416 2.33333 21V6.99996C2.33333 6.35829 2.5618 5.80899 3.01875 5.35204C3.47569 4.8951 4.025 4.66663 4.66667 4.66663H23.3333C23.975 4.66663 24.5243 4.8951 24.9813 5.35204C25.4382 5.80899 25.6667 6.35829 25.6667 6.99996V21C25.6667 21.6416 25.4382 22.1909 24.9813 22.6479C24.5243 23.1048 23.975 23.3333 23.3333 23.3333H4.66667Z" fill="#202547"/>
</g>
</svg>
