<svg width="24" height="25" viewBox="0 0 24 25" fill="none" xmlns="http://www.w3.org/2000/svg">
<mask id="mask0_37_59" style="mask-type:alpha" maskUnits="userSpaceOnUse" x="0" y="0" width="24" height="25">
<rect y="0.5" width="24" height="24" fill="#D9D9D9"/>
</mask>
<g mask="url(#mask0_37_59)">
<path d="M9 22.5C7.06667 22.5 5.41667 21.8167 4.05 20.45C2.68333 19.0833 2 17.4333 2 15.5C2 13.5667 2.68333 11.9167 4.05 10.55C5.41667 9.18333 7.06667 8.5 9 8.5C10.9333 8.5 12.5833 9.18333 13.95 10.55C15.3167 11.9167 16 13.5667 16 15.5C16 17.4333 15.3167 19.0833 13.95 20.45C12.5833 21.8167 10.9333 22.5 9 22.5ZM9 20.5C10.3833 20.5 11.5625 20.0125 12.5375 19.0375C13.5125 18.0625 14 16.8833 14 15.5C14 14.1167 13.5125 12.9375 12.5375 11.9625C11.5625 10.9875 10.3833 10.5 9 10.5C7.61667 10.5 6.4375 10.9875 5.4625 11.9625C4.4875 12.9375 4 14.1167 4 15.5C4 16.8833 4.4875 18.0625 5.4625 19.0375C6.4375 20.0125 7.61667 20.5 9 20.5ZM16.95 16.2C16.9833 16.1 17 15.9917 17 15.875V15.5C17 13.2833 16.2208 11.3958 14.6625 9.8375C13.1042 8.27917 11.2167 7.5 9 7.5H8.625C8.50833 7.5 8.4 7.51667 8.3 7.55C8.73333 6.08333 9.55417 4.875 10.7625 3.925C11.9708 2.975 13.3833 2.5 15 2.5C16.9333 2.5 18.5833 3.18333 19.95 4.55C21.3167 5.91667 22 7.56667 22 9.5C22 11.1167 21.525 12.5292 20.575 13.7375C19.625 14.9458 18.4167 15.7667 16.95 16.2Z" fill="#202547"/>
</g>
</svg>
