<svg width="24" height="25" viewBox="0 0 24 25" fill="none" xmlns="http://www.w3.org/2000/svg">
<mask id="mask0_48_43" style="mask-type:alpha" maskUnits="userSpaceOnUse" x="0" y="0" width="24" height="25">
<rect y="0.5" width="24" height="24" fill="#D9D9D9"/>
</mask>
<g mask="url(#mask0_48_43)">
<path d="M6 21.5C5.25 21.5 4.50833 21.3167 3.775 20.95C3.04167 20.5833 2.45 20.1 2 19.5C2.43333 19.5 2.875 19.3292 3.325 18.9875C3.775 18.6458 4 18.15 4 17.5C4 16.6667 4.29167 15.9583 4.875 15.375C5.45833 14.7917 6.16667 14.5 7 14.5C7.83333 14.5 8.54167 14.7917 9.125 15.375C9.70833 15.9583 10 16.6667 10 17.5C10 18.6 9.60833 19.5417 8.825 20.325C8.04167 21.1083 7.1 21.5 6 21.5ZM11.75 15.5L9 12.75L17.95 3.79999C18.1333 3.61666 18.3625 3.52083 18.6375 3.51249C18.9125 3.50416 19.15 3.59999 19.35 3.79999L20.7 5.14999C20.9 5.34999 21 5.58333 21 5.84999C21 6.11666 20.9 6.34999 20.7 6.54999L11.75 15.5Z" fill="#202547"/>
</g>
</svg>
